<svg version="1.1" id="Layer_1" xmlns="http://www.w3.org/2000/svg" xmlns:xlink="http://www.w3.org/1999/xlink" x="0px" y="0px"
	 viewBox="0 0 93.1 125.3" style="enable-background:new 0 0 93.1 125.3;" xml:space="preserve">
<style type="text/css">
	.st0{fill:#61D0ED;}
	.st1{fill:#0071E9;}
	.st2{fill:#0061C8;}
</style>
<g>
	<path class="st0" d="M90,108.2L51.4,89.6c-0.7-0.4-1.2-1.1-1.2-1.9V2.1c0-1.5,1.6-2.6,3-1.9l39.9,19.2v86.8
		C93.1,107.8,91.5,108.9,90,108.2z"/>
	<path class="st1" d="M89.1,107.7L42.9,85.5L7.2,23.3c-1.1-1.8,0.8-3.9,2.7-3l33.1,16L89.1,107.7z"/>
	<path class="st2" d="M39.8,125.1L1.2,106.6c-0.7-0.4-1.2-1.1-1.2-1.9V19c0-1.5,1.6-2.6,3-1.9l39.9,19.2v86.8
		C42.9,124.8,41.3,125.8,39.8,125.1z"/>
</g>
</svg>
