<?xml version="1.0" encoding="utf-8"?>
<!-- Generator: Adobe Illustrator 22.0.1, SVG Export Plug-In . SVG Version: 6.00 Build 0)  -->
<svg version="1.1" id="Layer_1" xmlns="http://www.w3.org/2000/svg" xmlns:xlink="http://www.w3.org/1999/xlink" x="0px" y="0px"
	 viewBox="0 0 402.2 125.3" style="enable-background:new 0 0 402.2 125.3;" xml:space="preserve">
<style type="text/css">
	.st0{fill:#ffffff;}
	.st1{fill:#61D0ED;}
	.st2{fill:#0071E9;}
	.st3{fill:#0061C8;}
</style>
<g>
	<path class="st0" d="M177.4,102.8h-14.9V68.6c0-7-3.5-10.5-10.4-10.5c-5.4,0-9.7,2.2-12.9,6.7v38h-14.9V46.3h14.9v7.4
		c4.9-5.9,11.5-8.8,19.8-8.8c6.1,0,10.7,1.6,13.7,4.8c3.1,3.2,4.6,7.6,4.6,13.2V102.8z"/>
	<path class="st0" d="M188,21.1h30.8c21.6,0,35.9,13.7,35.9,40.8c0,27.1-14.3,40.8-35.9,40.8H188V21.1z M218.7,87
		c10.5,0,17.1-5.7,17.1-18.7V55.7c0-13-6.6-18.7-17.1-18.7h-13V87H218.7z"/>
	<path class="st0" d="M310.8,102.8H296V97c-4.1,4.8-10,7.3-17.9,7.3c-5.1,0-9.6-1.7-13.6-5c-4-3.3-6-7.9-6-13.7
		c0-6.1,2-10.6,5.9-13.7c3.9-3,8.5-4.6,13.7-4.6c8,0,14,2.3,17.9,6.9v-7.6c0-2.9-1.1-5.2-3.4-6.9c-2.3-1.7-5.3-2.6-9-2.6
		c-6.2,0-11.7,2.2-16.5,6.7l-5.6-9.9c6.7-5.9,14.9-8.9,24.7-8.9c7.3,0,13.2,1.7,17.8,5c4.6,3.4,6.9,8.8,6.9,16.4V102.8z M284,94.1
		c5.5,0,9.5-1.6,11.9-4.9v-7c-2.4-3.3-6.4-4.9-11.9-4.9c-3,0-5.6,0.8-7.6,2.3c-2,1.5-3,3.6-3,6.3c0,2.6,1,4.6,3,6.1
		C278.4,93.4,281,94.1,284,94.1z"/>
	<path class="st0" d="M338.7,104.2c-5.2,0-9.2-1.3-11.9-4c-2.7-2.7-4.1-6.5-4.1-11.5V59.3h-9.4v-13h9.4V30.9h15v15.4h11.5v13h-11.5
		v25.5c0,1.8,0.5,3.3,1.4,4.4c0.9,1.2,2.2,1.8,3.7,1.8c2.3,0,4.1-0.5,5.1-1.6l3.2,11.2C348.3,103,344.2,104.2,338.7,104.2z"/>
	<path class="st0" d="M402.2,102.8h-14.9V97c-4.1,4.8-10,7.3-17.9,7.3c-5.1,0-9.6-1.7-13.6-5c-4-3.3-6-7.9-6-13.7
		c0-6.1,2-10.6,5.9-13.7c3.9-3,8.5-4.6,13.7-4.6c8,0,14,2.3,17.9,6.9v-7.6c0-2.9-1.1-5.2-3.4-6.9c-2.3-1.7-5.3-2.6-9-2.6
		c-6.2,0-11.7,2.2-16.5,6.7l-5.6-9.9c6.7-5.9,14.9-8.9,24.7-8.9c7.3,0,13.2,1.7,17.8,5c4.6,3.4,6.9,8.8,6.9,16.4V102.8z M375.4,94.1
		c5.5,0,9.5-1.6,11.9-4.9v-7c-2.4-3.3-6.4-4.9-11.9-4.9c-3,0-5.6,0.8-7.6,2.3c-2,1.5-3,3.6-3,6.3c0,2.6,1,4.6,3,6.1
		C369.8,93.4,372.4,94.1,375.4,94.1z"/>
</g>
<g>
	<path class="st1" d="M90,108.2L51.4,89.6c-0.7-0.4-1.2-1.1-1.2-1.9V2.1c0-1.5,1.6-2.6,3-1.9l39.9,19.2v86.8
		C93.1,107.8,91.5,108.9,90,108.2z"/>
	<path class="st2" d="M89.1,107.7L42.9,85.5L7.2,23.3c-1.1-1.8,0.8-3.9,2.7-3l33.1,16L89.1,107.7z"/>
	<path class="st3" d="M39.8,125.1L1.2,106.6c-0.7-0.4-1.2-1.1-1.2-1.9V19c0-1.5,1.6-2.6,3-1.9l39.9,19.2v86.8
		C42.9,124.8,41.3,125.8,39.8,125.1z"/>
</g>
</svg>
