<?xml version="1.0" encoding="UTF-8"?>
<!-- Generator: Adobe Illustrator 22.0.1, SVG Export Plug-In . SVG Version: 6.00 Build 0)  -->
<svg version="1.1" id="Layer_1" xmlns="http://www.w3.org/2000/svg" xmlns:xlink="http://www.w3.org/1999/xlink" x="0px" y="0px" viewBox="0 0 185.5 155.5" style="enable-background:new 0 0 185.5 155.5;" xml:space="preserve">
<style type="text/css">
	.st0{opacity:0.5;}
	.st1{fill:none;stroke:#C1C7CF;stroke-width:3;stroke-linecap:round;stroke-linejoin:round;stroke-dasharray:12.0276,12.0276;}
	.st2{fill:#FFFFFF;}
	.st3{fill:url(#SVGID_1_);}
	.st4{fill:#C1C7CF;}
	.st5{fill:#C9CED3;}
	.st6{fill:#EDEEF1;}
</style>
<g>
	<g class="st0">
		<circle class="st1" cx="89" cy="70.4" r="68.9"/>
	</g>
	<polygon class="st2" points="150.4,109.9 132.8,109.1 121.7,125.3 129.9,132.5 131.9,139.3 136.5,144 155.9,126.5 157.9,115.8  "/>
	<linearGradient id="SVGID_1_" gradientUnits="userSpaceOnUse" x1="52.709" y1="105.1707" x2="125.709" y2="35.1707">
		<stop offset="0" style="stop-color:#C1C7CF"/>
		<stop offset="0.9985" style="stop-color:#FAFAFA"/>
	</linearGradient>
	<path class="st3" d="M89,22.9c-26.2,0-47.5,21.3-47.5,47.5c0,26.2,21.3,47.5,47.5,47.5c26.2,0,47.5-21.3,47.5-47.5   C136.5,44.2,115.2,22.9,89,22.9z M89,107.9c-20.7,0-37.5-16.8-37.5-37.5C51.5,49.7,68.3,33,89,33c20.7,0,37.5,16.8,37.5,37.5   C126.4,91.1,109.6,107.9,89,107.9z"/>
	<g>
		<path class="st4" d="M120.7,105c0,0,6.3,6.4,5.2,9.6c0,0,8.5-3.4,9-8c0,0-7.5-2.7-9.1-6.6L120.7,105z"/>
		<path class="st5" d="M167.6,143.9l-3.5,3.5c-2.2,2.2-5.8,2.2-8,0l-28.8-28.8c-2.2-2.2-2.2-5.8,0-8l3.5-3.5c2.2-2.2,5.8-2.2,8,0    l28.8,28.8C169.8,138.1,169.8,141.7,167.6,143.9z"/>
	</g>
</g>
<path id="XMLID_1_" class="st4" d="M104.4,87.8c1.4-1.4,1.4-3.8,0-5.2L94.2,72.3L104.4,62c1.4-1.4,1.4-3.8,0-5.2  c-1.4-1.4-3.8-1.4-5.2,0L89,67.1L78.7,56.8c-1.4-1.4-3.8-1.4-5.2,0c-1.4,1.4-1.4,3.8,0,5.2l10.3,10.3L73.5,82.6  c-1.4,1.4-1.4,3.8,0,5.2c0.7,0.7,1.7,1.1,2.6,1.1c0.9,0,1.9-0.4,2.6-1.1L89,77.5l10.3,10.3c0.7,0.7,1.7,1.1,2.6,1.1  S103.7,88.5,104.4,87.8z"/>
<g>
	<path class="st6" d="M25.9,146.4c-0.4-0.8-0.5-1.7-0.6-2.6c0-0.9,0.2-1.7,0.5-2.6c0.4-0.8,0.9-1.6,1.7-2.4c1-0.9,1.9-1.6,2.8-2   s1.7-0.5,2.5-0.5c0.8,0,1.5,0.2,2.1,0.4c0.6,0.3,1.1,0.6,1.5,1c0.6,0.7,1.1,1.3,1.3,1.9c0.2,0.6,0.4,1.2,0.4,1.7s0,1.1-0.1,1.6   c-0.1,0.5-0.2,1-0.2,1.5c-0.1,0.5-0.1,1,0,1.4c0.1,0.5,0.3,0.9,0.6,1.4l0.8,0.8l-2.8,2.7l-0.9-0.9c-0.5-0.6-0.9-1.2-1.1-1.8   c-0.2-0.6-0.3-1.1-0.3-1.6c0-0.5,0-1,0.1-1.5c0.1-0.5,0.1-0.9,0.2-1.3s0-0.8-0.1-1.2c-0.1-0.4-0.3-0.8-0.7-1.1   c-0.6-0.6-1.2-0.9-1.8-0.9c-0.6,0-1.2,0.3-1.7,0.8c-0.4,0.4-0.6,0.7-0.7,1.1c-0.1,0.4-0.2,0.8-0.1,1.2c0.1,0.4,0.2,0.8,0.4,1.2   c0.2,0.4,0.5,0.8,0.9,1.2l-3,2.9C26.7,148.1,26.2,147.3,25.9,146.4z M40.5,149.2l3.1,3.1l-3.2,3.1l-3.1-3.1L40.5,149.2z"/>
</g>
<g>
	<path class="st6" d="M176.3,53.8l-1.7,4l-4.1-1.8l1.7-4L176.3,53.8z M173.2,39.2c0.6-0.7,1.4-1.2,2.2-1.5s1.7-0.5,2.6-0.5   c0.9,0,1.9,0.2,2.8,0.6c1.2,0.5,2.2,1.1,2.9,1.8c0.7,0.7,1.2,1.4,1.5,2.1s0.4,1.4,0.4,2.1c0,0.7-0.2,1.3-0.4,1.8   c-0.4,0.8-0.8,1.5-1.2,1.9s-0.9,0.8-1.4,1c-0.5,0.2-1,0.4-1.5,0.5c-0.5,0.1-1,0.2-1.5,0.3c-0.5,0.1-0.9,0.3-1.3,0.5   s-0.8,0.6-1.1,1.1l-0.4,1l-3.5-1.5l0.5-1.2c0.4-0.7,0.8-1.3,1.2-1.7c0.5-0.4,0.9-0.7,1.4-0.9c0.5-0.2,0.9-0.4,1.4-0.5   c0.5-0.1,0.9-0.2,1.3-0.4c0.4-0.1,0.8-0.3,1.1-0.6c0.3-0.2,0.6-0.6,0.8-1.1c0.3-0.8,0.4-1.5,0.2-2c-0.2-0.6-0.7-1-1.4-1.3   c-0.5-0.2-0.9-0.3-1.3-0.2c-0.4,0-0.8,0.2-1.2,0.4c-0.3,0.2-0.7,0.5-0.9,0.9c-0.3,0.4-0.5,0.8-0.7,1.3l-3.9-1.6   C172.1,40.6,172.6,39.9,173.2,39.2z"/>
</g>
<g>
	<path class="st6" d="M0,31.1c-0.1-0.9,0.1-1.8,0.4-2.6s0.7-1.6,1.4-2.2s1.4-1.2,2.4-1.7c1.2-0.6,2.3-0.9,3.3-0.9   c1,0,1.8,0.1,2.6,0.4c0.7,0.3,1.3,0.7,1.8,1.1c0.5,0.5,0.8,1,1.1,1.5c0.4,0.8,0.6,1.6,0.6,2.2c0,0.6,0,1.2-0.2,1.7s-0.4,1-0.6,1.5   c-0.3,0.4-0.5,0.9-0.7,1.3c-0.2,0.4-0.4,0.9-0.5,1.3c-0.1,0.5-0.1,1,0.1,1.5l0.4,1l-3.5,1.6l-0.5-1.2c-0.3-0.8-0.4-1.5-0.4-2.1   c0-0.6,0.1-1.2,0.2-1.7c0.2-0.5,0.3-1,0.6-1.4c0.2-0.4,0.4-0.8,0.6-1.2c0.2-0.4,0.3-0.8,0.3-1.2c0-0.4-0.1-0.8-0.3-1.3   c-0.4-0.8-0.8-1.3-1.4-1.5c-0.6-0.2-1.2-0.1-1.9,0.2c-0.5,0.2-0.8,0.5-1.1,0.8c-0.3,0.3-0.4,0.7-0.5,1.1c-0.1,0.4-0.1,0.8,0,1.3   c0.1,0.5,0.2,0.9,0.4,1.4l-3.8,1.7C0.3,33,0.1,32.1,0,31.1z M12.8,38.8l1.8,4l-4.1,1.8l-1.8-4L12.8,38.8z"/>
</g>
</svg>