<svg version="1.1" x="0px" y="0px" viewBox="0 0 562 562" width="14px" height="14px"><path d="m281 0c-122.183 0-245.875 42.225-245.875 122.937v316.125c0 80.712 123.692 122.938 245.875 122.938s245.875-42.226 245.875-122.937v-316.126c0-80.712-123.692-122.937-245.875-122.937zm0 491.75c-115.237 0-175.625-39.138-175.625-52.687v-69.729c46.88 22.813 111.369 34.604 175.625 34.604s128.745-11.791 175.625-34.604v69.729c0 13.548-60.389 52.687-175.625 52.687zm0-158.063c-115.237 0-175.625-39.138-175.625-52.687v-69.729c46.88 22.813 111.369 34.604 175.625 34.604s128.745-11.791 175.625-34.604v69.729c0 13.549-60.389 52.687-175.625 52.687z"></path></svg><svg version="1.1" x="0px" y="0px" viewBox="0 0 562 562" width="14px" height="14px"><path d="m281 0c-122.183 0-245.875 42.225-245.875 122.937v316.125c0 80.712 123.692 122.938 245.875 122.938s245.875-42.226 245.875-122.937v-316.126c0-80.712-123.692-122.937-245.875-122.937zm0 491.75c-115.237 0-175.625-39.138-175.625-52.687v-69.729c46.88 22.813 111.369 34.604 175.625 34.604s128.745-11.791 175.625-34.604v69.729c0 13.548-60.389 52.687-175.625 52.687zm0-158.063c-115.237 0-175.625-39.138-175.625-52.687v-69.729c46.88 22.813 111.369 34.604 175.625 34.604s128.745-11.791 175.625-34.604v69.729c0 13.549-60.389 52.687-175.625 52.687z"></path></svg>