<svg
                version="1.1"
                x="0px"
                y="0px"
                viewBox="0 0 515.558 515.558"
                width="18"
                height="18"
              >
                <path d="m515.558 469.992-137.214-137.212c25.37-34.645 40.545-77.2 40.545-123.333 0-115.484-93.961-209.445-209.445-209.445s-209.444 93.961-209.444 209.445 93.961 209.445 209.445 209.445c46.133 0 88.692-15.177 123.337-40.547l137.212 137.212c0-.001 45.564-45.565 45.564-45.565zm-451.115-260.546c0-79.958 65.042-145 145-145s145 65.042 145 145-65.042 145-145 145-145-65.042-145-145z"></path>
                <path d="m128.888 177.224h161.111v64.444h-161.111z"></path>
              </svg>